<?xml version="1.0" encoding="UTF-8"?><svg xmlns="http://www.w3.org/2000/svg" xmlns:xlink="http://www.w3.org/1999/xlink" viewBox="0 0 49.29 23.9"><defs><style>.e{fill:none;}.f{fill:#007971;}.g{fill:#52bbb5;}.h{fill:#379d93;}.i{fill:#4c4f50;}.j{clip-path:url(#d);}</style><clipPath id="d"><rect class="e" width="49.29" height="23.9"/></clipPath></defs><g id="a"/><g id="b"><g id="c"><g class="j"><path class="f" d="M11.86,6.14l.81-.81c.22-.22,.34-.5,.34-.81s-.12-.6-.34-.81c-.45-.45-1.18-.45-1.62,0-.22,.22-.34,.51-.34,.81s.12,.6,.34,.81l.81,.81Zm1.77-1.62c0,.45-.17,.9-.52,1.25l-4.39,4.39-.43-.44,3.14-3.14-.81-.81c-.69-.69-.69-1.81,0-2.5,.69-.69,1.81-.69,2.5,0,.34,.34,.52,.8,.52,1.25"/><path class="h" d="M14.85,4.51c0,.8-.31,1.55-.88,2.12l-4.39,4.39-.44-.44,4.39-4.39c.45-.45,.7-1.04,.7-1.68s-.25-1.23-.7-1.68c-.93-.93-2.43-.93-3.36,0-.45,.45-.7,1.04-.7,1.68h0c0,.63,.25,1.23,.7,1.68l.81,.81-.44,.44-.81-.81c-.56-.56-.88-1.31-.88-2.11h0c0-.8,.31-1.55,.88-2.12,1.17-1.17,3.06-1.17,4.23,0,.57,.56,.88,1.31,.88,2.11"/><path class="g" d="M16.07,4.51c0,1.13-.44,2.19-1.23,2.98l-4.39,4.39-.44-.44,4.39-4.39c.68-.68,1.05-1.58,1.05-2.55s-.37-1.87-1.06-2.55c-1.4-1.4-3.69-1.4-5.09,0-.68,.68-1.05,1.58-1.05,2.55s.37,1.87,1.05,2.55l.81,.81-.44,.44-.81-.81c-1.64-1.65-1.64-4.32,0-5.97C10.52-.11,13.19-.11,14.84,1.53c.8,.8,1.24,1.86,1.24,2.98"/><path class="f" d="M17.6,11.89l.81,.81c.22,.22,.51,.34,.81,.34s.59-.12,.81-.34c.45-.45,.45-1.18,0-1.62-.22-.22-.51-.34-.81-.34s-.6,.12-.81,.34l-.81,.81Zm1.62,1.76c-.45,0-.9-.17-1.25-.52l-4.39-4.39,.44-.44,3.14,3.14,.81-.81c.69-.69,1.81-.69,2.5,0,.69,.69,.69,1.81,0,2.5-.34,.34-.8,.52-1.25,.52"/><path class="h" d="M19.23,14.88c-.8,0-1.55-.31-2.12-.88l-4.39-4.39,.44-.44,4.39,4.39c.45,.45,1.04,.7,1.68,.7s1.23-.25,1.68-.7c.93-.93,.93-2.43,0-3.36-.45-.45-1.05-.69-1.68-.7h0c-.63,0-1.23,.25-1.68,.7l-.81,.81-.44-.44,.81-.81c.57-.56,1.32-.88,2.11-.88h0c.8,0,1.55,.31,2.11,.88,1.17,1.17,1.17,3.06,0,4.23-.57,.56-1.32,.88-2.11,.88"/><path class="g" d="M19.23,16.11c-1.13,0-2.19-.44-2.98-1.23l-4.39-4.39,.44-.44,4.39,4.39c.68,.68,1.58,1.05,2.55,1.05s1.87-.37,2.55-1.05c1.4-1.4,1.4-3.69,0-5.09-.68-.68-1.58-1.06-2.55-1.06s-1.87,.38-2.55,1.06l-.81,.81-.44-.44,.81-.81c1.64-1.65,4.32-1.65,5.97,0,1.64,1.64,1.64,4.32,0,5.97-.8,.8-1.86,1.24-2.98,1.24"/><path class="f" d="M11.86,17.64l-.81,.81c-.22,.22-.34,.5-.34,.81s.12,.6,.34,.81c.45,.45,1.18,.45,1.62,0,.22-.22,.34-.51,.34-.81s-.12-.59-.34-.81l-.81-.81Zm-1.76,1.62c0-.45,.17-.9,.52-1.25l4.39-4.39,.44,.44-3.14,3.14,.81,.81c.69,.69,.69,1.81,0,2.5-.69,.69-1.81,.69-2.5,0-.34-.34-.52-.8-.52-1.25"/><path class="h" d="M8.86,19.26c0-.8,.31-1.55,.88-2.11l4.39-4.39,.44,.44-4.39,4.39c-.45,.45-.7,1.05-.7,1.68s.25,1.23,.7,1.68c.93,.93,2.43,.93,3.36,0,.45-.45,.7-1.05,.7-1.68,0-.63-.25-1.23-.69-1.68l-.81-.81,.44-.44,.81,.81c.57,.57,.88,1.32,.88,2.11,0,.8-.31,1.55-.88,2.12-1.17,1.17-3.07,1.16-4.23,0-.57-.57-.88-1.32-.88-2.12"/><path class="g" d="M7.64,19.26c0-1.13,.44-2.18,1.23-2.98l4.39-4.39,.44,.44-4.39,4.39c-.68,.68-1.05,1.58-1.05,2.55s.37,1.87,1.05,2.55c1.4,1.4,3.69,1.4,5.09,0,.68-.68,1.05-1.58,1.05-2.55s-.38-1.87-1.05-2.55l-.81-.81,.44-.44,.81,.81c1.64,1.65,1.64,4.32,0,5.97-1.65,1.64-4.32,1.64-5.97,0-.8-.8-1.23-1.86-1.23-2.98"/><path class="f" d="M6.11,11.89l-.81-.81c-.22-.22-.51-.34-.81-.34s-.6,.12-.81,.34c-.45,.45-.45,1.18,0,1.63,.22,.22,.51,.33,.81,.33s.6-.12,.81-.33l.81-.81Zm-1.62-1.77c.45,0,.9,.17,1.25,.52l4.39,4.39-.44,.44-3.14-3.14-.81,.81c-.69,.69-1.81,.69-2.5,0-.69-.69-.69-1.81,0-2.5,.34-.34,.8-.52,1.25-.52"/><path class="h" d="M4.48,8.9c.8,0,1.55,.31,2.11,.88l4.39,4.39-.44,.44-4.39-4.39c-.45-.45-1.04-.69-1.68-.69s-1.23,.25-1.68,.69c-.93,.93-.93,2.43,0,3.36,.45,.45,1.04,.7,1.68,.7s1.23-.25,1.68-.69l.81-.81,.44,.44-.81,.81c-.57,.57-1.32,.88-2.11,.88s-1.55-.31-2.12-.88c-1.16-1.17-1.16-3.06,0-4.23,.57-.57,1.32-.88,2.12-.88"/><path class="g" d="M4.48,7.67c1.13,0,2.19,.44,2.98,1.23l4.39,4.39-.44,.44-4.39-4.39c-.68-.68-1.58-1.05-2.55-1.05s-1.87,.37-2.55,1.06c-1.41,1.4-1.41,3.69,0,5.09,.68,.68,1.59,1.05,2.55,1.05s1.87-.37,2.55-1.05l.81-.81,.44,.44-.81,.81c-1.64,1.65-4.32,1.65-5.97,0C-.15,13.23-.15,10.55,1.5,8.91c.8-.8,1.86-1.24,2.98-1.24"/><polygon class="i" points="25.74 16 25.74 7.78 27.25 7.78 27.25 14.73 31.28 14.73 31.28 16 25.74 16"/><path class="i" d="M45.7,16.1c-2.57,0-4.15-1.81-4.15-4.14s1.83-4.28,4.58-4.28c1.05,0,1.82,.21,2.42,.42v1.41c-.62-.32-1.41-.59-2.27-.59-2.16,0-3.08,1.32-3.08,2.91,0,1.72,1.09,3.02,2.88,3.02,.55,0,1-.09,1.3-.22v-2.79h1.51v3.49c-.75,.41-1.86,.77-3.18,.77"/><path class="i" d="M38.94,16v-4.89c0-.3,0-.56,.02-.89h-.01c-.11,.26-.35,.65-.48,.85l-1.62,2.65h-.72l-1.77-2.68c-.16-.22-.32-.46-.48-.81h-.02c.02,.34,.02,.6,.02,.85v4.93h-1.45V7.78h1.35l2.18,3.29c.23,.34,.38,.6,.53,.87h.02c.12-.26,.27-.55,.49-.91l2.01-3.26h1.37V16h-1.45Z"/></g></g></g></svg>