<?xml version="1.0" encoding="UTF-8"?><svg xmlns="http://www.w3.org/2000/svg" viewBox="0 0 16.09 16.13"><defs><style>.d{fill:#fff;}</style></defs><g id="a"/><g id="b"><g id="c"><g><path class="d" d="M.52,5.78c0-1.09,.89-1.99,1.99-1.99s1.99,.89,1.99,1.99-.89,1.99-1.99,1.99-1.99-.89-1.99-1.99"/><path class="d" d="M11.59,5.78c0-1.09,.89-1.99,1.99-1.99s1.99,.89,1.99,1.99-.89,1.99-1.99,1.99-1.99-.89-1.99-1.99"/><path class="d" d="M16.09,10.33v5.56c0,.15-.1,.25-.25,.25h-4.54c-.15,0-.25-.1-.25-.25v-3.7c-1.37,.87-3,.77-3.1,.77-1.12,0-2.11-.25-2.9-.77v3.7c0,.15-.12,.25-.25,.25H.25c-.15,0-.25-.1-.25-.25v-5.56c0-1.07,.87-1.94,1.94-1.94h1.19c.79,0,1.51,.5,1.81,1.24,.15,.42,.47,.99,1.04,1.32,.67,.37,1.36,.47,2.11,.47h.32c.67-.02,1.27-.2,1.74-.47,.57-.32,.87-.89,1.04-1.32,.27-.74,1.02-1.24,1.81-1.24h1.19c1.02,0,1.89,.87,1.89,1.94Z"/><path class="d" d="M11.64,2.26v2.09c0,.35-.27,.62-.62,.62h-.25l.05,.47c0,.1-.03,.2-.12,.25-.07,.05-.17,.05-.27,0l-1.09-.72h-1.69c-.27,0-.5-.17-.6-.4h1.79c.67,0,1.22-.55,1.22-1.22V1.64h.92c.37,0,.67,.27,.67,.62"/><path class="d" d="M9.58,.72V3.35c0,.4-.32,.72-.72,.72h-2.13l-1.37,.89c-.07,.05-.17,.05-.27,0-.07-.05-.12-.15-.12-.25l.07-.67h-.37c-.4,0-.72-.32-.72-.72V.72c0-.4,.32-.72,.72-.72h4.2c.4,0,.72,.32,.72,.72Z"/></g></g></g></svg>