<?xml version="1.0" encoding="UTF-8"?><svg xmlns="http://www.w3.org/2000/svg" viewBox="0 0 14.4 14.37"><defs><style>.d{fill:#fff;}</style></defs><g id="a"/><g id="b"><g id="c"><path class="d" d="M14.4,7.17c0-1.43-.4-2.76-1.15-3.88l-1.58,1.8c.28,.62,.47,1.33,.47,2.05,0,2.73-2.2,4.93-4.94,4.93S2.26,9.9,2.26,7.17,4.47,2.23,7.2,2.23c1.12,0,2.14,.37,2.98,.99l-2.79,2.45c-.44-.06-.9,.09-1.24,.43-.59,.59-.59,1.55,0,2.14,.59,.59,1.55,.59,2.14,0,.34-.34,.5-.81,.44-1.24L13.19,1.89l-.68-.68-.59,.53C10.65,.65,9.03,0,7.23,0,3.23-.03,0,3.2,0,7.17s3.23,7.2,7.2,7.2,7.2-3.23,7.2-7.2Zm-6.77-.44c.25,.25,.25,.62,0,.84-.25,.25-.62,.25-.84,0-.25-.25-.25-.62,0-.84,.22-.22,.59-.22,.84,0"/></g></g></svg>