<?xml version="1.0" encoding="UTF-8"?><svg xmlns="http://www.w3.org/2000/svg" xmlns:xlink="http://www.w3.org/1999/xlink" viewBox="0 0 68.62 19.72"><defs><style>.j{fill:url(#f);}.k{fill:url(#h);}.l{fill:none;}.m{letter-spacing:-.04em;}.n{fill:#815e5c;}.o{fill:#67a9d5;}.p{fill:#6a962f;}.q{fill:#cc3c7f;}.r{fill:#d49b09;}.s{fill:#ac8012;}.t{fill:#1e1f1d;}.u{fill:#299dbe;}.v{fill:#4a8a32;}.w{fill:#5e8136;}.x{fill:#818032;}.y{letter-spacing:-.01em;}.a`{clip-path:url(#e);}.aa{clip-path:url(#d);}.ab{clip-path:url(#i);}.ac{clip-path:url(#g);}.ad{font-family:Museo-700, Museo;font-size:4.31px;}</style><clipPath id="d"><rect class="l" width="68.62" height="19.72"/></clipPath><clipPath id="e"><path class="l" d="M9.29,2.13c-1.7,0-3.08,1.39-3.08,3.08v4.21l2.86-3.32,.03-.04,.07-.08,.1-.09,.07-.06,.11-.08,.08-.05,.11-.06,.09-.04,.09-.04h.03l.09-.04,.09-.03c.05-.01,.09-.02,.12-.03h.07l.05-.03h.18c.05-.01,.08-.01,.11-.01,.04,0,.08,0,.11,0,.05,0,.07,0,.1,0l.11,.02s.07,.01,.1,.02l.11,.03,.09,.03,.11,.04s.07,.03,.1,.04l.09,.04s.08,.04,.11,.06l.07,.05,.11,.08,.07,.06,.1,.09,.08,.08,.02,.02,.03,.04,1.16,1.39,3.36-4c.07-.09,.15-.18,.24-.26,.36-.32,.83-.5,1.31-.5,.09,0,.17,0,.26,.02h.04c.09,.02,.18,.04,.27,.06l.11,.04c-.54-.48-1.26-.78-2.04-.78h-7.48Z"/></clipPath><radialGradient id="f" cx="-645.2" cy="42.55" fx="-645.2" fy="42.55" r="1" gradientTransform="translate(5921.56 -383.9) scale(9.16)" gradientUnits="userSpaceOnUse"><stop offset="0" stop-color="#cecdce"/><stop offset=".03" stop-color="#cecdce"/><stop offset=".42" stop-color="#cbcacb"/><stop offset=".61" stop-color="#c4c3c4"/><stop offset=".76" stop-color="#b7b6b7"/><stop offset=".89" stop-color="#a4a5a5"/><stop offset=".98" stop-color="#929393"/><stop offset="1" stop-color="#929393"/></radialGradient><clipPath id="g"><path class="l" d="M14.68,11.93l-.02,.02c-.08,.08-.16,.16-.25,.23l-.05,.03c-.11,.08-.22,.14-.33,.19l-.05,.02c-.1,.05-.23,.09-.35,.11h-.04c-.13,.03-.26,.05-.38,.05-.13,0-.26-.01-.39-.04h-.04c-.12-.03-.25-.08-.37-.13h-.03c-.11-.07-.22-.13-.33-.21l-.05-.04c-.08-.06-.16-.14-.24-.22h-.01l-.05-.06-1.18-1.42-3.6,4.18c.57,.69,1.42,1.12,2.38,1.12h7.48c1.7,0,3.08-1.39,3.08-3.08v-1l-2.02-3.51-3.15,3.74Z"/></clipPath><radialGradient id="h" cx="-645.2" cy="42.55" fx="-645.2" fy="42.55" r="1" gradientTransform="translate(6102.47 -389.57) scale(9.44)" gradientUnits="userSpaceOnUse"><stop offset="0" stop-color="#cecdce"/><stop offset=".03" stop-color="#cecdce"/><stop offset=".27" stop-color="#cac9ca"/><stop offset=".52" stop-color="#bebdbe"/><stop offset=".76" stop-color="#aaaaab"/><stop offset=".98" stop-color="#929393"/><stop offset="1" stop-color="#929393"/></radialGradient><clipPath id="i"><rect class="l" width="68.62" height="19.72"/></clipPath></defs><g id="a"/><g id="b"><g id="c"><g><g class="aa"><path class="t" d="M37.36,6.05c-1.63,0-2.61,1.4-2.61,2.97,0,1.12,.43,2.18,1.37,2.68l.1,.05c.32,.15,.7,.24,1.14,.24,.07,0,.13,0,.19,0h.06c.54-.07,1-.3,1.35-.64h0l.11-.12h0c.05-.07,.08-.16,.08-.25,0-.25-.2-.44-.45-.44-.17,0-.35,.18-.39,.23-.23,.23-.55,.39-.95,.4h-.06c-.34,0-.62-.1-.84-.26-.47-.3-.74-.85-.75-1.48v-.02h3.62c.41,0,.54-.17,.54-.51,0-1.4-.92-2.83-2.5-2.83m-1.65,2.62c.03-.89,.46-1.83,1.65-1.79,1.06,0,1.54,.96,1.54,1.79h-3.19Z"/><path class="t" d="M50.46,9.02c0-.12,0-.23,.02-.35v-.04s.02-.1,.03-.15l.02-.09c.01-.06,.02-.11,.04-.17,.01-.05,.03-.1,.04-.15,.11-.37,.31-.71,.6-.93,.04-.03,.08-.06,.13-.09l.07-.04s.08-.04,.12-.06l.08-.03s.1-.03,.15-.04h.07c.08-.03,.16-.03,.24-.03s.16,0,.24,.02h.07c.05,.02,.1,.04,.15,.05l.08,.03s.08,.03,.12,.06l.07,.04s.09,.06,.13,.09c.29,.22,.49,.55,.6,.93,.01,.05,.03,.1,.04,.15,.01,.06,.03,.11,.04,.17l.02,.09s.01,.1,.02,.15v.04c.02,.12,.02,.24,.02,.35,0,.98-.41,2.14-1.59,2.14s-1.6-1.16-1.6-2.14m4.11-.54l-.02-.1s-.02-.09-.03-.14c-.01-.05-.02-.11-.04-.16v-.03h0c-.23-.83-.75-1.53-1.53-1.84h0s-.1-.04-.15-.05l-.09-.03s-.09-.02-.14-.03c-.05,0-.09-.02-.14-.02l-.11-.02c-.09,0-.18-.01-.27-.01s-.18,0-.27,.01l-.11,.02s-.09,.01-.14,.02c-.05,0-.09,.02-.14,.03l-.09,.03c-.05,.02-.1,.03-.15,.05h0c-.78,.31-1.3,1-1.53,1.84h0v.03c-.02,.05-.03,.11-.05,.16-.01,.04-.02,.09-.03,.14l-.02,.1c-.03,.18-.04,.36-.04,.54,0,1.44,.81,2.79,2.26,2.96,.1,.01,.2,.02,.3,.02s.2,0,.3-.02c1.45-.16,2.26-1.51,2.26-2.96,0-.18-.02-.37-.04-.54"/><path class="t" d="M56.32,9.02c0-.12,0-.23,.02-.35v-.04s.02-.1,.03-.15l.02-.09c.01-.06,.02-.11,.04-.17,.01-.05,.03-.1,.04-.15,.11-.37,.31-.71,.6-.93,.04-.03,.08-.06,.13-.09l.07-.04s.08-.04,.12-.06l.08-.03s.1-.03,.15-.04h.07c.08-.03,.16-.03,.24-.03s.16,0,.24,.02h.07c.05,.02,.1,.04,.15,.05l.08,.03s.08,.03,.12,.06l.07,.04s.09,.06,.13,.09c.29,.22,.49,.55,.6,.93,.01,.05,.03,.1,.04,.15,.01,.06,.03,.11,.04,.17l.02,.09s.01,.1,.02,.15v.04c.02,.12,.02,.24,.02,.35,0,.98-.41,2.14-1.59,2.14s-1.6-1.16-1.6-2.14m4.11-.54l-.02-.1s-.02-.09-.03-.14c-.01-.05-.02-.11-.04-.16v-.03h0c-.23-.83-.75-1.53-1.53-1.84h0s-.1-.04-.15-.05l-.09-.03s-.09-.02-.14-.03c-.05,0-.09-.02-.14-.02l-.11-.02c-.09,0-.18-.01-.27-.01s-.18,0-.27,.01l-.11,.02s-.09,.01-.14,.02c-.05,0-.09,.02-.14,.03l-.09,.03c-.05,.02-.1,.03-.15,.05h0c-.78,.31-1.3,1-1.53,1.84h0v.03c-.02,.05-.03,.11-.05,.16-.01,.04-.02,.09-.03,.14l-.02,.1c-.03,.18-.04,.36-.04,.54,0,1.44,.81,2.79,2.26,2.96,.1,.01,.2,.02,.3,.02s.2,0,.3-.02c1.45-.16,2.26-1.51,2.26-2.96,0-.18-.02-.37-.04-.54"/><path class="t" d="M31.73,6.01h0c-.24,0-.49,.03-.73,.09-.09,.02-.18,.05-.27,.09-.31,.12-.59,.31-.8,.58-.22-.27-.49-.46-.8-.58-.08-.03-.16-.06-.24-.08-.24-.07-.5-.1-.76-.1h0c-1.15,0-2.26,.6-2.27,2.26v3.23c0,.21,.12,.41,.31,.47,.33,.11,.63-.13,.63-.45v-3.26c0-.07,0-.13,.01-.2,0-.04,0-.08,.01-.12h0c.06-.44,.25-.75,.54-.93,.08-.05,.16-.08,.26-.11,.04-.01,.08-.02,.13-.03l.1-.02c.08-.01,.17-.02,.27-.02h0c.52,0,.88,.18,1.09,.52l.04,.06,.02,.06c.11,.22,.16,.49,.17,.82v3.23c0,.26,.21,.47,.48,.47s.48-.21,.48-.47v-3.23c0-.33,.06-.6,.17-.82l.03-.06,.04-.06c.21-.34,.57-.52,1.09-.52h0c.09,0,.18,0,.27,.02l.1,.02s.09,.02,.13,.03c.09,.03,.18,.07,.26,.11,.3,.18,.48,.49,.54,.93,0,.04,0,.08,.01,.12,0,.06,.01,.13,.01,.2v3.26c0,.31,.3,.55,.63,.45,.2-.06,.32-.26,.32-.47v-3.23c-.01-1.66-1.13-2.26-2.27-2.26"/><path class="t" d="M46.49,6.01h0c-.25,0-.49,.03-.73,.09-.09,.02-.18,.05-.27,.09-.31,.12-.59,.31-.8,.58-.22-.27-.49-.46-.8-.58-.08-.03-.16-.06-.24-.08-.24-.07-.5-.1-.76-.1h0c-1.15,0-2.26,.6-2.27,2.26v3.23c0,.21,.12,.41,.31,.47,.33,.11,.63-.13,.63-.45v-3.26c0-.07,0-.13,.01-.2,0-.04,0-.08,.01-.12h0c.06-.44,.24-.75,.54-.93,.08-.05,.16-.08,.26-.11,.04-.01,.08-.02,.13-.03l.1-.02c.08-.01,.17-.02,.27-.02h0c.52,0,.88,.18,1.09,.52l.04,.06,.02,.06c.11,.22,.16,.49,.17,.82v3.23c0,.26,.21,.47,.48,.47s.48-.21,.48-.47v-3.23c0-.33,.06-.6,.17-.82l.03-.06,.04-.06c.21-.34,.57-.52,1.09-.52h0c.09,0,.18,0,.27,.02l.1,.02s.09,.02,.13,.03c.09,.03,.18,.07,.26,.11,.3,.18,.48,.49,.54,.93,0,.04,0,.08,.01,.12,0,.06,.01,.13,.01,.2v3.26c0,.31,.3,.55,.63,.45,.2-.06,.32-.26,.32-.47v-3.23c-.02-1.66-1.12-2.26-2.27-2.26"/><path class="t" d="M63.51,6.05c-.56,0-1.33,.71-1.33,.71v-.2c0-.32-.19-.51-.48-.51s-.48,.2-.48,.51v4.95c0,.32,.31,.56,.64,.45,.2-.07,.32-.27,.32-.48v-2.62c0-1.13,.7-1.7,1.27-1.8,.4-.08,.6-.25,.6-.53s-.2-.49-.54-.49"/><path class="t" d="M65.13,5.24c.44,.11,.83-.27,.72-.72-.05-.21-.22-.38-.43-.42-.44-.1-.82,.28-.72,.72,.05,.21,.22,.38,.42,.43"/><path class="t" d="M65.28,6.05c-.3,0-.48,.2-.48,.51v4.97c.01,.31,.32,.54,.65,.43,.2-.07,.32-.27,.32-.47V6.56c0-.32-.18-.51-.48-.51"/></g><g class="a`"><rect class="j" x="6.21" y="2.13" width="12.59" height="7.29"/></g><g class="ac"><rect class="k" x="6.91" y="8.19" width="12.94" height="7.58"/></g><g class="ab"><path class="q" d="M3.53,16.78c-.37,0-.74-.16-.99-.5-.33-.44-.27-1.16,.09-1.57L9.61,6.61c.5-.58,1.42-.58,1.91,.06,.36,.47,.31,1.14-.08,1.59l-6.98,8.1c-.24,.28-.59,.43-.93,.43"/><path class="p" d="M13.21,11.85c-.35,0-.7-.15-.95-.44l-2.64-3.16c-.38-.45-.42-1.13-.05-1.59,.51-.63,1.42-.61,1.91-.03l2.64,3.16c.37,.45,.42,1.11,.07,1.57-.26,.33-.62,.49-.98,.49"/><path class="r" d="M13.21,11.85c-.36,0-.73-.16-.98-.49-.33-.43-.28-1.15,.07-1.57l4.86-5.78c.38-.45,1.04-.61,1.55-.33,.71,.39,.85,1.29,.36,1.88l-4.92,5.85c-.24,.29-.59,.44-.94,.44"/><path class="o" d="M22.29,13.2c-.43,0-.84-.22-1.07-.62l-4.13-7.17c-.29-.51-.22-1.18,.22-1.57,.61-.53,1.51-.36,1.89,.3l4.13,7.17c.29,.51,.23,1.17-.21,1.56-.24,.22-.54,.32-.83,.32"/><path class="n" d="M9.62,8.24l.9,1.08-.9-1.08Z"/><path class="v" d="M10.55,6.18h-.13l-.07,.02h-.06l-.07,.03-.06,.02-.06,.02-.06,.03-.06,.03-.07,.04-.05,.03-.07,.05-.04,.04-.06,.05-.05,.06-.06,.07c-.17,.22-.26,.48-.26,.74,0,.3,.11,.6,.31,.85l.9,1.08,.92-1.06c.39-.45,.44-1.12,.08-1.59l-.06-.07-.05-.06-.06-.05-.04-.04-.07-.05-.05-.03-.07-.04-.06-.03-.06-.02-.07-.03-.06-.02-.07-.02h-.06l-.07-.02h-.13Z"/><path class="w" d="M13.21,8.7l-.92,1.09c-.19,.23-.3,.55-.3,.86,0-.31,.1-.63,.3-.86l.92-1.09Z"/><path class="s" d="M13.21,8.7l-.92,1.09c-.19,.23-.3,.55-.3,.86,0,.26,.07,.51,.22,.71l.05,.06c.06,.06,.12,.12,.18,.17l.03,.02c.07,.05,.13,.09,.21,.12h.02c.08,.04,.15,.07,.23,.09h0c.08,.02,.17,.03,.26,.03h.02c.08,0,.16-.01,.23-.03h0c.08-.02,.16-.05,.23-.08h.02c.07-.04,.14-.08,.2-.13l.03-.02c.06-.05,.12-.11,.18-.17l.05-.06c.36-.46,.3-1.12-.07-1.57l-.91-1.09Z"/><path class="x" d="M19.21,4.16h0Zm-2.28,.82c.03,.15,.08,.3,.16,.43l.86,1.48-.86-1.48c-.08-.14-.13-.28-.16-.43"/><path class="u" d="M18.15,3.53c-.37,0-.74,.17-1,.47h0c-.21,.28-.29,.64-.23,.98,.03,.15,.08,.3,.16,.43l.85,1.48,1.13-1.35c.34-.4,.37-.95,.14-1.39h0l-.03-.05-.05-.08-.04-.05-.04-.06-.06-.06-.03-.03-.08-.06-.03-.02-.06-.04-.09-.05s-.09-.04-.13-.06l-.07-.02c-.05-.02-.11-.03-.17-.04h-.02s-.09-.01-.14-.01"/></g><text class="ad" transform="translate(25.77 17.02)"><tspan x="0" y="0">ww</tspan><tspan class="m" x="7.19" y="0">w</tspan><tspan x="10.62" y="0">.memoori</tspan><tspan class="y" x="30.71" y="0">.</tspan><tspan x="31.8" y="0">com</tspan></text></g></g></g></svg>