<?xml version="1.0" encoding="UTF-8"?><svg xmlns="http://www.w3.org/2000/svg" viewBox="0 0 21.97 13.04"><defs><style>.d{fill:#fff;}</style></defs><g id="a"/><g id="b"><g id="c"><g><path class="d" d="M18.51,11.98h-4.12l-2.25-3.24-2.89,.81-1.69,2.43H3.44c-.28,0-.53,.25-.53,.53s.25,.53,.53,.53h15.1c.28,0,.53-.25,.53-.53s-.25-.53-.56-.53Z"/><path class="d" d="M.06,8.25c-.07,.11-.07,.25-.04,.39l.63,2.22c.07,.21,.28,.39,.49,.39,.04,0,.11,0,.14-.04L21.61,5.47c.14-.04,.25-.14,.32-.25,.04-.11,.07-.25,.04-.39l-.63-2.22c-.07-.28-.35-.42-.63-.35l-1.29,.36-.2,.08-10.96,3.09-3.95,1.12h0l-.99,.27h0L.37,8c-.14,.04-.25,.14-.32,.25"/><path class="d" d="M1.04,6.85l3.62-1.04c.39-.11,.51-.33,.4-.73l-.26-.91-.99,.29,.1,.36c.03,.12-.01,.21-.13,.24l-1.42,.41-.48-1.68,1.49-.43-.21-.73-1.49,.43-.28-.98c-.12-.43,.12-.86,.62-1,.47-.14,.97,.11,.97,.11l.4-.92S2.61-.18,1.71,.08C.6,.4,0,1.35,.28,2.34l.29,1.02-.37,.11,.21,.73,.37-.11,.48,1.68-.49,.14,.27,.93Z"/></g></g></g></svg>