<?xml version="1.0" encoding="UTF-8"?><svg xmlns="http://www.w3.org/2000/svg" viewBox="0 0 7.3 7.3"><defs><style>.d{fill:#fff;}.e{fill:#464545;}</style></defs><g id="a"/><g id="b"><g id="c"><g><path class="e" d="M3.65,7.3c2.01,0,3.65-1.63,3.65-3.65S5.66,0,3.65,0,0,1.63,0,3.65s1.63,3.65,3.65,3.65"/><path class="d" d="M3.73,2.16c.32,0,.59-.26,.59-.58s-.26-.59-.59-.59-.59,.26-.59,.59,.26,.58,.59,.58"/><path class="d" d="M5.15,1.53c-.11-.05-.23,0-.28,.11-.01,.03-.23,.47-.6,.76-.15-.08-.33-.12-.53-.12s-.38,.05-.53,.12c-.37-.29-.59-.73-.6-.76-.05-.11-.17-.15-.28-.11-.11,.05-.15,.18-.11,.28,.15,.33,.46,.84,.88,1.15v1.46l.09,1.8s.04,.09,.09,.09h.21s.09-.04,.1-.09l.09-1.8h.13l.09,1.8s.05,.09,.1,.09h.21s.09-.04,.1-.09l.09-1.8v-1.46c.42-.31,.73-.82,.88-1.15,.05-.11,0-.23-.1-.28Z"/></g></g></g></svg>