<?xml version="1.0" encoding="UTF-8"?><svg xmlns="http://www.w3.org/2000/svg" viewBox="0 0 7.3 7.3"><defs><style>.d{fill:#fff;}.e{fill:#464545;}</style></defs><g id="a"/><g id="b"><g id="c"><g><path class="e" d="M3.65,7.3c2.01,0,3.65-1.63,3.65-3.65S5.66,0,3.65,0,0,1.63,0,3.65s1.63,3.65,3.65,3.65"/><path class="d" d="M4.89,3.57c0-.33-.13-.65-.37-.88-.23-.23-.55-.36-.88-.36s-.65,.13-.88,.36-.37,.55-.37,.88,.13,.65,.37,.88c.23,.23,.55,.36,.88,.36v-.62l1.5,1-1.5,1v-.62c-.53,0-1.04-.21-1.41-.59-.38-.37-.58-.88-.58-1.41s.21-1.04,.58-1.41c.37-.38,.88-.58,1.41-.58s1.04,.21,1.41,.58c.38,.37,.58,.88,.58,1.41h-.75Z"/></g></g></g></svg>