<?xml version="1.0" encoding="UTF-8"?><svg xmlns="http://www.w3.org/2000/svg" viewBox="0 0 13.57 13.57"><defs><style>.d{fill:#fff;}</style></defs><g id="a"/><g id="b"><g id="c"><g><path class="d" d="M11.53,4.37c.57,1.13,.72,2.43,.43,3.66-.3,1.23-1.03,2.32-2.05,3.06-1.03,.74-2.28,1.1-3.55,1-1.26-.1-2.45-.65-3.34-1.54-.9-.9-1.44-2.08-1.54-3.35-.1-1.26,.25-2.52,1-3.55,.74-1.03,1.83-1.75,3.06-2.05,1.23-.3,2.53-.15,3.66,.43l1.07-1.08C8.84,.11,7.16-.19,5.53,.12S2.45,1.31,1.43,2.62C.41,3.93-.09,5.56,.01,7.21c.1,1.65,.81,3.21,1.98,4.38,1.17,1.17,2.73,1.87,4.39,1.97,1.65,.1,3.28-.41,4.59-1.43,1.3-1.02,2.19-2.48,2.49-4.11,.3-1.63,0-3.31-.85-4.73l-1.07,1.08Z"/><path class="d" d="M13.21,2.16l-1.61-.2-.2-1.61-1.72,1.72v1.17l-.8,.8-.9,.89-.78,.78c-.33-.13-.71-.11-1.01,.08-.31,.18-.51,.49-.56,.85-.05,.35,.07,.71,.33,.96,.25,.25,.61,.37,.96,.33,.35-.05,.67-.25,.85-.56,.18-.31,.21-.68,.07-1.01l.79-.77,1.69-1.7h1.17l1.72-1.73Z"/><path class="d" d="M7.64,4.75l1.37-1.37c-1.14-.74-2.57-.87-3.82-.35-1.25,.53-2.16,1.64-2.42,2.98-.26,1.33,.16,2.71,1.12,3.67,.96,.96,2.34,1.38,3.67,1.12,1.33-.26,2.45-1.17,2.97-2.42,.53-1.25,.39-2.68-.35-3.82l-1.37,1.37c.27,.63,.23,1.36-.11,1.96-.34,.6-.94,1-1.62,1.1-.68,.09-1.37-.14-1.86-.63-.49-.49-.72-1.17-.63-1.86,.09-.68,.5-1.28,1.09-1.63,.6-.34,1.32-.38,1.96-.12Z"/></g></g></g></svg>