<?xml version="1.0" encoding="UTF-8"?><svg xmlns="http://www.w3.org/2000/svg" viewBox="0 0 17.09 17.08"><defs><style>.d{fill:#fff;}</style></defs><g id="a"/><g id="b"><g id="c"><path class="d" d="M8.54,11.59s-.04,0-.05,0c-.13,.02-.25,.08-.34,.18-.09,.1-.13,.23-.13,.36v2.97l-.9-1.06c-.1-.12-.26-.2-.42-.19-.14,0-.27,.06-.36,.15-.1,.1-.15,.22-.16,.36,0,.14,.04,.27,.13,.37l1.84,2.17c.1,.12,.25,.19,.41,.19s.3-.07,.4-.19l1.84-2.17c.1-.11,.15-.25,.14-.39,0-.15-.08-.28-.19-.37-.11-.09-.25-.14-.4-.13-.14,.01-.28,.09-.37,.2l-.9,1.06v-2.97c0-.14-.05-.28-.15-.39-.1-.1-.24-.16-.39-.16M2.69,6.16c-.12,0-.24,.05-.33,.13L.19,8.14c-.12,.1-.19,.25-.19,.41s.07,.31,.19,.41l2.17,1.84c.11,.1,.25,.15,.39,.14,.14,0,.28-.08,.37-.19,.09-.11,.14-.25,.12-.4-.02-.14-.09-.28-.2-.37l-1.06-.9h2.97c.19,0,.36-.11,.45-.27,.09-.16,.09-.36,0-.53-.09-.16-.26-.27-.45-.27H1.99l1.06-.9c.12-.1,.19-.24,.19-.39,0-.15-.05-.3-.15-.4-.1-.11-.25-.16-.4-.16Zm11.7,0s-.04,0-.05,0c-.14,.01-.27,.08-.37,.19-.09,.11-.14,.25-.12,.39s.08,.27,.19,.36l1.06,.9h-2.97c-.14,0-.28,.05-.39,.15-.1,.1-.16,.24-.16,.38s.06,.28,.16,.38c.1,.1,.24,.15,.39,.15h2.96l-1.06,.9c-.14,.12-.2,.31-.17,.5,.04,.18,.16,.33,.34,.4,.18,.07,.37,.03,.52-.08l2.17-1.84c.12-.1,.19-.25,.19-.41s-.07-.31-.19-.41l-2.17-1.84c-.1-.08-.22-.13-.34-.13Zm-5.84-.04c-1.33,0-2.42,1.09-2.42,2.42s1.09,2.42,2.42,2.42,2.42-1.09,2.42-2.42-1.09-2.42-2.42-2.42M8.53,0c-.15,0-.29,.07-.39,.19l-1.84,2.17c-.11,.1-.16,.25-.16,.4,0,.15,.08,.29,.19,.39,.11,.1,.26,.14,.41,.12s.28-.1,.37-.22l.9-1.06v2.97c-.01,.15,.04,.3,.14,.41,.1,.11,.24,.17,.39,.17s.29-.06,.39-.17c.1-.11,.15-.26,.14-.41V1.99l.9,1.06c.09,.12,.22,.2,.37,.22s.3-.03,.41-.12c.11-.1,.18-.24,.19-.39,0-.15-.05-.29-.16-.4L8.95,.19c-.1-.12-.26-.19-.42-.19"/></g></g></svg>